<?xml version="1.0" encoding="utf-8"?><svg xmlns="http://www.w3.org/2000/svg" xmlns:xlink="http://www.w3.org/1999/xlink" width="227px" height="227px" viewBox="0 0 100 100" preserveAspectRatio="xMidYMid" style="margin-right:-2px;display:block;background-repeat-y:initial;background-repeat-x:initial;background-color:rgb(255, 255, 255);animation-play-state:paused" ><g transform="rotate(0 50 50)" style="transform:matrix(1, 0, 0, 1, 0, 0);animation-play-state:paused" ><rect x="47.5" y="24.5" rx="2.5" ry="4.84" width="5" height="11" fill="#30b92a" opacity="0.0476189" style="opacity:0.0476189;animation-play-state:paused" ></rect></g>
<g transform="rotate(17.142857142857142 50 50)" style="transform:matrix(0.955573, 0.294755, -0.294755, 0.955573, 16.9591, -12.5164);animation-play-state:paused" ><rect x="47.5" y="24.5" rx="2.5" ry="4.84" width="5" height="11" fill="#30b92a" opacity="0.0952385" style="opacity:0.0952385;animation-play-state:paused" ></rect></g>
<g transform="rotate(34.285714285714285 50 50)" style="transform:matrix(0.826239, 0.56332, -0.56332, 0.826239, 36.8541, -19.4779);animation-play-state:paused" ><rect x="47.5" y="24.5" rx="2.5" ry="4.84" width="5" height="11" fill="#30b92a" opacity="0.142857" style="opacity:0.142857;animation-play-state:paused" ></rect></g>
<g transform="rotate(51.42857142857143 50 50)" style="transform:matrix(0.62349, 0.781831, -0.781831, 0.62349, 57.9171, -20.2661);animation-play-state:paused" ><rect x="47.5" y="24.5" rx="2.5" ry="4.84" width="5" height="11" fill="#30b92a" opacity="0.190476" style="opacity:0.190476;animation-play-state:paused" ></rect></g>
<g transform="rotate(68.57142857142857 50 50)" style="transform:matrix(0.365341, 0.930874, -0.930874, 0.365341, 78.2766, -14.8107);animation-play-state:paused" ><rect x="47.5" y="24.5" rx="2.5" ry="4.84" width="5" height="11" fill="#30b92a" opacity="0.238095" style="opacity:0.238095;animation-play-state:paused" ></rect></g>
<g transform="rotate(85.71428571428571 50 50)" style="transform:matrix(0.0747301, 0.997204, -0.997204, 0.0747301, 96.1237, -3.59669);animation-play-state:paused" ><rect x="47.5" y="24.5" rx="2.5" ry="4.84" width="5" height="11" fill="#30b92a" opacity="0.285714" style="opacity:0.285714;animation-play-state:paused" ></rect></g>
<g transform="rotate(102.85714285714286 50 50)" style="transform:matrix(-0.222521, 0.974928, -0.974928, -0.222521, 109.872, 12.3796);animation-play-state:paused" ><rect x="47.5" y="24.5" rx="2.5" ry="4.84" width="5" height="11" fill="#30b92a" opacity="0.333334" style="opacity:0.333334;animation-play-state:paused" ></rect></g>
<g transform="rotate(120 50 50)" style="transform:matrix(-0.5, 0.866025, -0.866025, -0.5, 118.301, 31.6987);animation-play-state:paused" ><rect x="47.5" y="24.5" rx="2.5" ry="4.84" width="5" height="11" fill="#30b92a" opacity="0.380953" style="opacity:0.380953;animation-play-state:paused" ></rect></g>
<g transform="rotate(137.14285714285714 50 50)" style="transform:matrix(-0.733052, 0.680173, -0.680173, -0.733052, 120.661, 52.644);animation-play-state:paused" ><rect x="47.5" y="24.5" rx="2.5" ry="4.84" width="5" height="11" fill="#30b92a" opacity="0.428572" style="opacity:0.428572;animation-play-state:paused" ></rect></g>
<g transform="rotate(154.28571428571428 50 50)" style="transform:matrix(-0.900969, 0.433884, -0.433884, -0.900969, 116.743, 73.3543);animation-play-state:paused" ><rect x="47.5" y="24.5" rx="2.5" ry="4.84" width="5" height="11" fill="#30b92a" opacity="0.476191" style="opacity:0.476191;animation-play-state:paused" ></rect></g>
<g transform="rotate(171.42857142857142 50 50)" style="transform:matrix(-0.988831, 0.149042, -0.149042, -0.988831, 106.894, 91.9894);animation-play-state:paused" ><rect x="47.5" y="24.5" rx="2.5" ry="4.84" width="5" height="11" fill="#30b92a" opacity="0.523809" style="opacity:0.523809;animation-play-state:paused" ></rect></g>
<g transform="rotate(188.57142857142858 50 50)" style="transform:matrix(-0.988831, -0.149042, 0.149042, -0.988831, 91.9894, 106.894);animation-play-state:paused" ><rect x="47.5" y="24.5" rx="2.5" ry="4.84" width="5" height="11" fill="#30b92a" opacity="0.571429" style="opacity:0.571429;animation-play-state:paused" ></rect></g>
<g transform="rotate(205.71428571428572 50 50)" style="transform:matrix(-0.900969, -0.433884, 0.433884, -0.900969, 73.3543, 116.743);animation-play-state:paused" ><rect x="47.5" y="24.5" rx="2.5" ry="4.84" width="5" height="11" fill="#30b92a" opacity="0.619048" style="opacity:0.619048;animation-play-state:paused" ></rect></g>
<g transform="rotate(222.85714285714286 50 50)" style="transform:matrix(-0.733052, -0.680173, 0.680173, -0.733052, 52.644, 120.661);animation-play-state:paused" ><rect x="47.5" y="24.5" rx="2.5" ry="4.84" width="5" height="11" fill="#30b92a" opacity="0.666667" style="opacity:0.666667;animation-play-state:paused" ></rect></g>
<g transform="rotate(240 50 50)" style="transform:matrix(-0.5, -0.866025, 0.866025, -0.5, 31.6987, 118.301);animation-play-state:paused" ><rect x="47.5" y="24.5" rx="2.5" ry="4.84" width="5" height="11" fill="#30b92a" opacity="0.714286" style="opacity:0.714286;animation-play-state:paused" ></rect></g>
<g transform="rotate(257.14285714285717 50 50)" style="transform:matrix(-0.222521, -0.974928, 0.974928, -0.222521, 12.3797, 109.872);animation-play-state:paused" ><rect x="47.5" y="24.5" rx="2.5" ry="4.84" width="5" height="11" fill="#30b92a" opacity="0.761905" style="opacity:0.761905;animation-play-state:paused" ></rect></g>
<g transform="rotate(274.2857142857143 50 50)" style="transform:matrix(0.0747299, -0.997204, 0.997204, 0.0747299, -3.59669, 96.1237);animation-play-state:paused" ><rect x="47.5" y="24.5" rx="2.5" ry="4.84" width="5" height="11" fill="#30b92a" opacity="0.809524" style="opacity:0.809524;animation-play-state:paused" ></rect></g>
<g transform="rotate(291.42857142857144 50 50)" style="transform:matrix(0.365341, -0.930874, 0.930874, 0.365341, -14.8107, 78.2767);animation-play-state:paused" ><rect x="47.5" y="24.5" rx="2.5" ry="4.84" width="5" height="11" fill="#30b92a" opacity="0.857143" style="opacity:0.857143;animation-play-state:paused" ></rect></g>
<g transform="rotate(308.57142857142856 50 50)" style="transform:matrix(0.62349, -0.781831, 0.781831, 0.62349, -20.2661, 57.9171);animation-play-state:paused" ><rect x="47.5" y="24.5" rx="2.5" ry="4.84" width="5" height="11" fill="#30b92a" opacity="0.904762" style="opacity:0.904762;animation-play-state:paused" ></rect></g>
<g transform="rotate(325.7142857142857 50 50)" style="transform:matrix(0.826239, -0.56332, 0.56332, 0.826239, -19.4779, 36.8541);animation-play-state:paused" ><rect x="47.5" y="24.5" rx="2.5" ry="4.84" width="5" height="11" fill="#30b92a" opacity="0.952381" style="opacity:0.952381;animation-play-state:paused" ></rect></g>
<g transform="rotate(342.85714285714283 50 50)" style="transform:matrix(0.955573, -0.294755, 0.294755, 0.955573, -12.5164, 16.9591);animation-play-state:paused" ><rect x="47.5" y="24.5" rx="2.5" ry="4.84" width="5" height="11" fill="#30b92a" opacity="1" style="animation-play-state:paused" ></rect></g><!-- generated by https://loading.io/ --></svg>